<svg xmlns="http://www.w3.org/2000/svg" width="500" height="500" style="width:100%;height:100%;transform:translate3d(0,0,0);content-visibility:visible" viewBox="0 0 500 500"><defs><clipPath id="a"><path d="M0 0h500v500H0z"/></clipPath><clipPath id="c"><path d="M0 0h500v500H0z"/></clipPath><clipPath id="b"><path d="M0 0h500v500H0z"/></clipPath></defs><g clip-path="url(#a)"><g clip-path="url(#b)" style="display:block"><g class="primary design" style="display:none"><path class="primary"/><path fill="none" class="primary"/></g><g class="primary design" style="display:none"><path class="primary"/></g><g class="primary design" style="display:block"><path fill="#121331" d="m437.143 131.799-7.082 54.164c-12.499 95.827-66.454 180.821-147.907 233.109l-23.332 14.999c-2.708 1.875-5.833 2.917-8.958 2.917-2.916 0-5.833-.833-8.541-2.5l-23.749-15.416C136.121 366.784 82.167 281.79 69.668 185.963l-7.083-54.164c-1.042-8.124 4.375-15.831 12.291-17.498 35.414-7.083 134.574-29.79 166.655-49.997 5.208-3.125 11.458-3.125 16.666 0 32.081 20.207 131.242 42.914 166.656 49.997 7.916 1.667 13.332 9.374 12.29 17.498z" class="primary"/></g></g><g clip-path="url(#c)" style="display:none"><g class="primary design" style="display:none"><path class="primary"/><path fill="none" class="primary"/></g><g class="primary design" style="display:none"><path class="secondary"/><path class="primary"/><path fill="none" class="primary"/></g><g class="primary design" style="display:none"><path class="primary"/></g></g></g></svg>